<svg width="348" height="116" viewBox="0 0 348 116" fill="none" xmlns="http://www.w3.org/2000/svg">
<rect width="348" height="116" fill="white"/>
<path d="M92.1009 62H84.0609V44.66C84.0609 40.04 83.1009 36.62 78.8409 36.62C73.7409 36.62 71.7609 41.54 71.7609 47V62H63.7209V31.1H71.3409V35.3H71.4609C73.9209 31.82 77.3409 30.38 81.6009 30.38C88.6809 30.38 92.1009 35.24 92.1009 42.5V62ZM122.481 53.72V60.26C119.541 61.88 116.181 62.72 111.921 62.72C101.661 62.72 95.7205 56.84 95.7205 46.7C95.7205 38.06 100.221 30.38 110.061 30.38C120.561 30.38 124.761 36.86 124.761 49.04H103.401C103.761 53.9 107.061 56.84 112.281 56.84C116.121 56.84 119.481 55.4 122.481 53.72ZM103.401 43.52H117.081C116.781 39.08 114.681 36.26 110.481 36.26C106.461 36.26 103.821 38.9 103.401 43.52ZM146.46 55.64L146.7 62C145.02 62.48 143.16 62.72 140.82 62.72C134.28 62.72 130.98 58.64 130.98 52.7V36.98H125.04V31.1H130.98V24.92L139.02 22.34V31.1H146.16V36.98H139.02V51.32C139.02 54.56 140.04 56.48 142.86 56.48C144.24 56.48 145.62 56.18 146.46 55.64Z" fill="#E12828"/>
<path d="M177.821 62H167.621L157.301 47H157.181V62H149.141V17H157.181V43.46H157.301L166.901 31.1H176.381L164.861 44.9L177.821 62ZM204.381 53.72V60.26C201.441 61.88 198.081 62.72 193.821 62.72C183.561 62.72 177.621 56.84 177.621 46.7C177.621 38.06 182.121 30.38 191.961 30.38C202.461 30.38 206.661 36.86 206.661 49.04H185.301C185.661 53.9 188.961 56.84 194.181 56.84C198.021 56.84 201.381 55.4 204.381 53.72ZM185.301 43.52H198.981C198.681 39.08 196.581 36.26 192.381 36.26C188.361 36.26 185.721 38.9 185.301 43.52ZM218.46 25.46H210.42V17.78H218.46V25.46ZM218.46 62H210.42V31.1H218.46V62ZM232.04 62H224.24V17H232.28V35.06H232.4C234.62 32.12 237.44 30.38 241.64 30.38C250.28 30.38 254.6 36.8 254.6 46.46C254.6 55.52 250.7 62.72 241.64 62.72C237.5 62.72 234.14 61.04 232.16 58.22H232.04V62ZM239.42 56.48C244.46 56.48 246.2 51.14 246.2 46.46C246.2 41.66 244.4 36.62 239.54 36.62C234.5 36.62 232.34 41.96 232.34 46.46C232.34 51.26 234.32 56.48 239.42 56.48ZM284.139 62H277.059C276.819 60.86 276.759 58.76 276.699 57.38H276.579C274.779 60.68 270.879 62.72 267.039 62.72C261.459 62.72 256.239 59.36 256.239 53.48C256.239 48.14 259.299 42.92 271.359 42.92H276.339V42.8C276.339 37.64 273.699 36.26 269.379 36.26C265.959 36.26 262.539 37.58 259.839 39.62L259.599 32.72C262.479 31.4 266.619 30.38 270.339 30.38C279.579 30.38 283.659 34.1 283.659 43.4V49.76C283.659 51.38 283.779 57.86 284.139 62ZM276.339 48.08V47.72H272.799C267.099 47.72 263.919 49.4 263.919 53.06C263.919 55.46 265.779 56.84 269.019 56.84C272.619 56.84 276.339 54.38 276.339 48.08Z" fill="#3951B5"/>
<path d="M115.276 71.8652V90.1172C116.752 89.944 117.992 89.6842 118.995 89.3379C123.47 87.7884 126.619 84.1016 128.442 78.2773L132.475 80.6699C130.698 85.373 128.291 88.8411 125.256 91.0742C121.838 93.599 116.926 94.9388 110.518 95.0938L110.504 71.8652H115.276ZM134.155 81.0391H158.121V85.6738H134.155V81.0391ZM176.248 84.2793C177.041 84.8991 177.638 85.3594 178.039 85.6602C180.464 87.5286 182.82 89.5931 185.107 91.8535L181.334 95.5039C178.59 92.4049 175.984 89.7754 173.514 87.6152C170.15 91.1699 166.605 93.7448 162.877 95.3398L160.361 91.6074C164.117 90.0397 167.32 87.8613 169.973 85.0723C172.197 82.7298 173.928 79.9727 175.168 76.8008H162.002V72.5762H181.088C180.295 76.9056 178.682 80.8066 176.248 84.2793Z" fill="#E12828"/>
<path d="M191.258 77.0195C192.169 75.6706 193.026 74.2031 193.828 72.6172L197.136 73.8887C196.48 75.0189 195.541 76.418 194.32 78.0859C193.263 79.5352 192.319 80.7428 191.49 81.709L192.365 81.6543L193.226 81.5996L193.978 81.5586C193.832 80.9479 193.655 80.3509 193.445 79.7676L196.111 78.9199C196.886 80.7611 197.501 82.7207 197.957 84.7988L194.785 85.8789C194.767 85.7786 194.707 85.3913 194.607 84.7168L193.486 84.8535V96.5977H190.177V85.25C188.418 85.4323 187.097 85.5371 186.213 85.5645L186.008 81.832H186.896H187.689L188.168 81.2305L188.605 80.6699L189.015 80.1641C188.204 79.0794 187.092 77.9583 185.679 76.8008L187.402 73.2461C187.584 73.3828 187.762 73.5195 187.935 73.6562C188.026 73.7292 188.108 73.7975 188.181 73.8613C188.856 72.5671 189.398 71.3184 189.808 70.1152L193.336 70.7168C192.461 72.6126 191.467 74.3581 190.355 75.9531C190.392 75.9896 190.692 76.3451 191.258 77.0195ZM189.426 86.8086C189.325 88.6953 189.239 90.0853 189.166 90.9785C189.038 92.5371 188.797 93.9544 188.441 95.2305L185.638 93.3984C186.231 91.5299 186.564 89.2103 186.636 86.4395L189.426 86.8086ZM196.699 86.3301C197.173 88.3535 197.433 90.5046 197.478 92.7832L194.648 93.2617C194.657 92.9609 194.662 92.7741 194.662 92.7012C194.662 91.5436 194.562 90.0352 194.361 88.1758C194.306 87.6745 194.238 87.2142 194.156 86.7949L196.699 86.3301ZM202.838 70.1152H206.967V72.6992H212.49V76.5137H206.967V79.084H211.875V82.8711H197.984V79.084H202.838V76.5137H197.232V72.6992H202.838V70.1152ZM211.793 84.5254V96.0781H198.148V84.5254H211.793ZM207.773 88.2305H202.113V92.3867H207.773V88.2305ZM228.046 89.7617V96.5977H223.986V89.7344C221.525 92.3776 218.394 94.5514 214.593 96.2559L212.447 92.0723C215.682 91.1243 218.344 89.8301 220.431 88.1895H212.83V84.375H223.986V83.1309H214.812V70.7852H237.33V83.1309H228.046V84.375H239.285V88.1895H231.546C232.476 88.9551 233.406 89.5931 234.335 90.1035C235.602 90.7962 237.371 91.4753 239.64 92.1406L237.343 96.3105C233.233 94.4694 230.134 92.2865 228.046 89.7617ZM223.986 74.1895H218.818V75.6387H223.986V74.1895ZM223.986 78.3867H218.818V79.959H223.986V78.3867ZM233.296 74.1895H228.046V75.6387H233.296V74.1895ZM233.296 78.3867H228.046V79.959H233.296V78.3867Z" fill="#3951B5"/>
</svg>
