<svg width="268" height="134" viewBox="0 0 268 134" fill="none" xmlns="http://www.w3.org/2000/svg">
<rect width="268" height="134" fill="#202020"/>
<path fill-rule="evenodd" clip-rule="evenodd" d="M37.7647 0H54.5295V114H37.7647V0ZM37.7647 14.0824H37.7647V27.4941H21V14.0824H31.0588L37.7647 7.37653V14.0824Z" fill="#FF7F00"/>
<path fill-rule="evenodd" clip-rule="evenodd" d="M188.121 36.7647H242.601L250.847 44.6704V59.5347L163.06 100.471H163L163 100.498L163 117.235V134H267.612V117.235H179.765V111.12L267.612 69.6235V36.7647L249.506 20L181.432 20L181.106 20V20.2968L163 36.7647L163 36.7647V53.5294H179.765V44.6942L188.121 36.7647Z" fill="#FF7F00"/>
<line x1="62.4911" y1="126.687" x2="169.491" y2="3.68734" stroke="#FF7F00" stroke-width="4"/>
</svg>
