<svg width="268" height="134" viewBox="0 0 268 134" fill="none" xmlns="http://www.w3.org/2000/svg">
<rect width="268" height="134" fill="#202020"/>
<path fill-rule="evenodd" clip-rule="evenodd" d="M19.7059 0H39.4118V134H19.7059V0ZM11.8235 16.553H0V32.3177H19.7059V16.553L19.7059 8.67063L11.8235 16.553Z" fill="#FF7F00"/>
<line x1="108.491" y1="126.687" x2="215.491" y2="3.68734" stroke="#FF7F00" stroke-width="4"/>
<path fill-rule="evenodd" clip-rule="evenodd" d="M71 0H149.071V12.5113L133.024 28.5897L149.071 43.0389L149.071 43.0389V67.561L149.071 67.5611L149.071 67.5611L129.553 85.0769L129.553 85.0769V85.077H90.5176L90.5176 85.0769L71.0093 67.6664L71.1022 67.5611H71V55.0498H83.5113V61.6029L95.9025 72.5657H124.339L136.559 61.754V48.9074L129.423 42.5385H106.032V30.0272H113.918L131.434 12.5113H71V0Z" fill="#FF7F00"/>
<path fill-rule="evenodd" clip-rule="evenodd" d="M190 49H202.5V93.5H241V49H253.5V93.5H268V106H253.5V134H241V106H190V103V93.5V49Z" fill="#FF7F00"/>
</svg>
