<svg width="269" height="134" viewBox="0 0 269 134" fill="none" xmlns="http://www.w3.org/2000/svg">
<rect width="268" height="134" fill="#202020"/>
<path fill-rule="evenodd" clip-rule="evenodd" d="M59.1176 0H19.7059L0 19.7059V39.4118H19.7059V27.5882L27.5882 19.7059H51.2353L59.1176 27.5882L59.1176 48.4375L0 85.1294V114.294V134H78.8235V114.294L19.7059 114.294V96.1974L78.8235 58.3294V23.2529V19.7059L59.1176 0Z" fill="#FF7F00"/>
<path fill-rule="evenodd" clip-rule="evenodd" d="M110.441 0H122.882V84.5999H110.441V0ZM98 10.4506H110.441V20.4036H98V10.4506ZM110.441 10.4506V5.47412L105.465 10.4506H110.441Z" fill="#FF7F00"/>
<line x1="108.491" y1="126.687" x2="215.491" y2="3.68734" stroke="#FF7F00" stroke-width="4"/>
<path fill-rule="evenodd" clip-rule="evenodd" d="M209.213 61.5H249.834L255.982 67.3946V78.4777L190.527 109H190.482V121.5V134H268.482V121.5L202.982 121.5V116.94L268.482 86.0001L268.482 86L268.482 85.9999V61.5001H268.482L268.482 61.5L254.982 49L254.982 49.0001H204.226L204.226 49L204.226 49.0001H203.982V49.2215L190.483 61.5L190.483 61.5001H190.482V74.0001H202.982V67.4125L209.213 61.5Z" fill="#FF7F00"/>
</svg>
