<svg width="268" height="134" viewBox="0 0 268 134" fill="none" xmlns="http://www.w3.org/2000/svg">
<rect width="268" height="134" fill="#202020"/>
<line x1="78.4911" y1="126.687" x2="185.491" y2="3.68734" stroke="#FF7F00" stroke-width="4"/>
<path fill-rule="evenodd" clip-rule="evenodd" d="M0 0H90V14.4231L71.5017 32.9583L90 49.6153L90 77.8846L67.5 98.0769L22.5 98.077L22.5 98.0769L0.0107539 78.006L0.117921 77.8846H0V63.4615H14.4231V71.016L28.7077 83.6539H61.4892L75.5769 71.1901V56.3807L67.3501 49.0385H40.3846V34.6154H49.4763L69.6686 14.4231H0V0Z" fill="#FF7F00"/>
<path fill-rule="evenodd" clip-rule="evenodd" d="M178 36H192.412V87.3058L236.8 87.3059V36H251.212V87.3059H267.929V101.718H251.212V134H236.8V101.718H178V98.2588V87.3058V36Z" fill="#FF7F00"/>
</svg>
