<svg width="269" height="134" viewBox="0 0 269 134" fill="none" xmlns="http://www.w3.org/2000/svg">
<rect width="268" height="134" fill="#202020"/>
<path fill-rule="evenodd" clip-rule="evenodd" d="M0 0H79V20L59 46L79 66V115L59 134H19L0 114.508V114V111V94H20V106L28 114H51L59 106V74L51 66H28V46H35L55 20H0V0Z" fill="#FF7F00"/>
<path fill-rule="evenodd" clip-rule="evenodd" d="M110.441 0H122.882V84.5999H110.441V0ZM98 10.4506H110.441V20.4036H98V10.4506ZM110.441 10.4506V5.47412L105.465 10.4506H110.441Z" fill="#FF7F00"/>
<line x1="108.491" y1="126.687" x2="215.491" y2="3.68734" stroke="#FF7F00" stroke-width="4"/>
<path fill-rule="evenodd" clip-rule="evenodd" d="M209.213 61.5H249.834L255.982 67.3946V78.4777L190.527 109H190.482V121.5V134H268.482V121.5L202.982 121.5V116.94L268.482 86.0001L268.482 86L268.482 85.9999V61.5001H268.482L268.482 61.5L254.982 49L254.982 49.0001H204.226L204.226 49L204.226 49.0001H203.982V49.2215L190.483 61.5L190.483 61.5001H190.482V74.0001H202.982V67.4125L209.213 61.5Z" fill="#FF7F00"/>
</svg>
