<svg width="268" height="134" viewBox="0 0 268 134" fill="none" xmlns="http://www.w3.org/2000/svg">
<rect width="268" height="134" fill="#202020"/>
<path fill-rule="evenodd" clip-rule="evenodd" d="M174.609 19.7059H194L174.609 0V19.7059ZM92.391 3.65376e-05H174.609V19.7059V27.5882L166.853 19.7059L100.147 19.7059L92.391 27.5882L92.391 48.0824L99.3718 55.1765H166.853L174.609 47.2942V19.7059H194V51V55.1765L184.305 65.0295L194 74.8824V113V114.294L174.609 134V114.294H174.609V134H92.391L73 114.294V74.8824L92.391 74.8824H73L82.6955 65.0294L73 55.1765V19.7059L92.391 3.65376e-05ZM100.147 74.8824L92.391 82.7647V106.412L100.147 114.294L166.853 114.294L174.609 106.412V74.8824L174.609 55.1766L174.609 55.1765V74.8824H100.147ZM174.609 82.7648V74.8824H166.853L174.609 82.7648Z" fill="#FF7F00"/>
</svg>
