<svg width="268" height="134" viewBox="0 0 268 134" fill="none" xmlns="http://www.w3.org/2000/svg">
<rect width="268" height="134" fill="#202020"/>
<path d="M109.344 52.072H74.638C77.988 64.132 85.09 77.13 93.934 87.18C103.85 98.436 114.972 106.074 130.918 112.64C126.362 118 124.486 120.814 121.136 128.05C106.798 120.68 97.552 113.846 88.038 103.528C79.328 94.282 72.762 83.562 67.804 71.1C63.784 84.902 56.682 96.426 45.962 107.012C36.85 115.99 27.202 122.288 13.936 128.05C11.658 122.958 8.844 118.804 4.556 113.98C14.204 110.094 19.564 107.28 26.264 102.59C44.22 89.86 53.198 74.852 56.414 52.072H24.79C16.348 52.072 12.462 52.34 8.04 53.01V35.992C12.194 36.662 17.018 36.93 24.924 36.93H57.754C58.022 30.23 58.156 28.086 58.156 21.118C58.156 15.49 57.754 11.47 57.218 7.718H74.906C74.236 12.408 74.102 14.418 73.968 23.396C73.968 28.89 73.834 31.972 73.7 36.93H109.21C116.848 36.93 121.538 36.662 126.094 35.992V53.01C120.734 52.34 116.714 52.072 109.344 52.072ZM192.692 32.24H160.398C154.1 32.24 150.08 32.374 145.926 32.91V19.108C149.946 19.644 154.234 19.912 160.398 19.912H175.674C173.128 15.356 170.448 11.872 166.428 7.58399L181.034 3.69799C184.518 8.11999 188.672 14.552 191.62 19.912H210.648C214.802 14.418 216.812 10.934 219.894 3.69799L235.17 7.04799C231.82 12.676 229.274 16.294 226.192 19.912H242.138C248.436 19.912 252.456 19.644 256.476 19.108V32.91C252.188 32.374 248.436 32.24 242.138 32.24H207.566V40.28H238.252C243.612 40.28 246.56 40.146 250.178 39.61V52.876C246.56 52.474 243.478 52.34 238.252 52.34H207.566V60.514H246.828C254.466 60.514 257.816 60.38 261.166 59.844V73.646C257.548 73.11 253.394 72.842 246.828 72.842H183.312C181.704 78.202 181.436 79.14 180.364 82.356C183.58 82.758 185.322 82.758 189.744 82.758H239.458C245.756 82.758 248.704 82.624 252.456 82.088V95.756C248.838 95.22 244.684 95.086 239.592 95.086H220.028V111.568H245.488C251.652 111.568 256.074 111.3 260.228 110.764V125.236C255.672 124.7 251.25 124.432 244.818 124.432H180.364C173.932 124.432 169.376 124.7 164.954 125.236V110.764C169.108 111.434 171.52 111.568 177.282 111.568H205.154V95.086H189.61C185.322 95.086 181.838 95.22 178.89 95.622V86.376C175.674 94.282 171.386 101.518 165.758 108.888C159.996 116.392 155.172 121.082 147.266 127.246C144.452 121.886 142.442 119.206 137.886 114.382C152.76 104.332 163.212 89.994 168.17 72.842H155.708C149.946 72.842 145.926 73.11 141.236 73.646V59.844C145.122 60.38 148.204 60.514 155.708 60.514H192.692V52.34H164.552C159.192 52.34 156.11 52.474 152.492 52.876V39.61C156.11 40.146 158.924 40.28 164.552 40.28H192.692V32.24Z" fill="#FF7F00"/>
</svg>
