<svg width="268" height="134" viewBox="0 0 268 134" fill="none" xmlns="http://www.w3.org/2000/svg">
<rect width="268" height="134" fill="#202020"/>
<path d="M87.9934 15.4053L95.0455 25.6167C93.5719 27.9009 93.5719 28.0352 90.8353 35.022C87.1514 44.9648 81.0466 55.0418 74.6261 62.0286C70.4159 66.7313 66.9425 69.6872 61.9955 73.1806C58.8379 67.5374 57.259 65.522 52.5226 60.9537C59.5746 56.9229 63.5743 53.8326 67.8898 48.5925C72.2052 43.4868 75.4681 37.978 77.889 31.5286H22.6302C15.2624 31.5286 12.631 31.663 8.3156 32.3348V15.5396C12.3153 16.3458 15.5782 16.6145 22.8408 16.6145H77.7837C84.099 16.6145 85.0463 16.4802 87.9934 15.4053ZM37.9974 42.5463H52.3121C51.9963 45.0991 51.9963 45.2335 51.8911 53.4295C51.47 76.4053 48.6282 89.304 41.4708 100.993C35.1556 111.339 27.472 118.192 14.3151 125.178C11.5785 117.923 10.2102 115.504 6 109.861C14.5256 106.637 19.2621 103.681 24.4196 98.4405C35.1556 87.5573 38.5237 76.0022 38.5237 50.6079C38.5237 46.5771 38.4185 45.3678 37.9974 42.5463Z" fill="#FF7F00"/>
<path d="M162.955 21.7203L170.007 30.7225C168.639 33.0066 168.429 33.544 166.744 39.7247C163.376 51.9515 157.587 67.6718 153.272 76.674C142.536 98.978 127.695 114.833 105.276 128C101.908 120.744 100.539 118.46 96.5396 114.161C105.486 109.458 110.749 106.099 117.064 100.725C124.537 94.544 128.958 89.707 134.326 82.0485C126.958 73.9868 120.643 68.3436 112.749 62.8348L120.748 50.8766C129.59 57.1916 134.01 60.9537 141.904 68.8811C146.851 59.207 150.43 49.8018 153.693 37.1718L120.959 37.5749C114.433 51.4141 106.96 62.2974 96.3291 73.7181C92.8557 68.7467 91.2769 67 85.8036 62.9692C97.3816 51.9515 105.802 39.7247 112.223 24.6762C115.275 17.5551 117.38 10.9714 118.327 6L132.01 9.89647C130.853 12.315 130.853 12.315 128.853 17.4207C127.59 21.0485 126.853 22.6608 126.327 23.87C128.011 23.6013 128.011 23.6013 153.693 23.3326C158.008 23.1982 160.219 22.9295 162.955 21.7203Z" fill="#FF7F00"/>
<path d="M184.848 63.2379L195.163 53.6982C200.742 59.6101 203.899 63.2379 208.215 68.6123C214.004 76.1366 214.004 76.1366 214.741 76.9427C220.214 71.0308 224.635 65.6564 228.529 60.0132C233.055 53.5639 238.844 43.4868 241.37 38.1123C241.686 37.4405 241.686 37.4405 242.002 36.9031C242.107 36.5 242.107 36.5 242.212 36.2313C241.16 36.3656 239.581 36.5 237.37 36.5H199.058C195.268 36.5 192.216 36.5 187.164 36.5C178.638 36.6344 177.586 36.6344 173.691 37.1718V20.1079C177.796 20.9141 180.217 21.0485 187.374 21.0485L245.896 20.9141C250.422 20.9141 252.001 20.7797 254.632 19.8392L262 30.4537C260.421 32.6035 259.79 33.544 257.369 38.3811C247.37 58.9383 236.318 75.4648 223.372 89.304C227.792 95.7533 231.792 102.203 237.265 111.742L226.213 123.029C220.319 110.936 214.741 101.665 205.899 89.1696C197.795 77.7489 192.532 71.1652 184.848 63.2379Z" fill="#FF7F00"/>
</svg>
