<svg width="268" height="134" viewBox="0 0 268 134" fill="none" xmlns="http://www.w3.org/2000/svg">
<rect width="268" height="134" fill="#202020"/>
<path d="M108.674 23.798L117.25 32.24C115.91 34.25 115.374 35.456 113.9 40.28C107.736 60.648 98.222 78.738 86.43 92.004C74.102 106.074 59.362 116.526 38.726 126.04C34.974 119.34 33.232 117.062 27.336 111.97C40.736 106.476 48.24 102.456 56.682 96.158C75.844 81.954 88.44 63.596 95.81 39.61L55.476 40.28C47.302 53.278 36.85 64.802 24.12 74.584C20.1 69.09 18.09 67.348 11.122 63.06C26.398 52.608 36.046 41.888 45.828 24.2C49.982 16.562 52.126 11.336 52.662 6.512L71.02 10.13C70.216 11.336 70.216 11.336 68.742 14.284C68.34 14.954 68.34 14.954 67 18.036C66.598 18.84 66.598 18.84 65.258 21.52C64.454 23.396 64.454 23.396 63.114 25.808C64.856 25.674 67 25.54 69.546 25.54L98.892 25.138C104.118 25.138 105.592 24.87 108.674 23.798ZM174.066 26.746V53.814C194.3 50.062 223.914 38.136 232.624 29.962L243.344 45.104C242.406 45.506 238.386 47.382 231.284 50.866C213.06 59.576 194.3 65.606 174.066 69.358V87.046C173.932 87.716 173.932 88.386 173.932 88.788C173.932 96.56 174.468 99.642 176.344 101.518C178.622 103.93 186.26 105.002 199.258 105.002C208.236 105.002 220.564 104.198 230.346 102.858C236.778 102.054 239.726 101.384 245.622 99.642L246.426 117.464C243.612 117.464 242.942 117.598 228.738 118.938C220.832 119.742 203.948 120.546 195.774 120.546C178.89 120.546 169.644 118.804 164.418 114.784C160.666 111.97 158.656 107.682 157.852 101.116C157.584 98.838 157.45 96.56 157.45 88.788L157.316 26.612C157.316 19.778 157.316 17.634 156.78 14.284H174.736C174.2 17.5 174.066 19.912 174.066 26.746ZM228.202 12.274L237.716 7.98599C243.076 14.016 246.694 19.51 251.116 28.354L241.468 32.776C237.314 24.2 233.83 18.84 228.202 12.274ZM267.33 20.18L257.816 25.004C254.198 17.634 250.044 11.202 244.952 5.03799L254.198 0.749992C260.094 7.44999 263.712 12.676 267.33 20.18Z" fill="#FF7F00"/>
</svg>
