<svg width="268" height="134" viewBox="0 0 268 134" fill="none" xmlns="http://www.w3.org/2000/svg">
<rect width="268" height="134" fill="#202020"/>
<path d="M37.654 17.634L56.012 20.984C55.476 22.592 55.208 24.066 54.27 31.302C51.59 49.526 48.24 64.4 43.684 77.13C37.654 93.612 30.82 105.672 19.966 118.536C13.534 112.372 11.39 110.764 4.69 107.012C12.73 98.972 18.224 90.798 23.852 78.47C29.614 66.008 34.304 49.392 36.448 32.508C37.252 27.014 37.654 22.458 37.654 19.51C37.654 19.108 37.654 18.438 37.654 17.634ZM77.452 20.85L94.068 17.634C94.47 25.138 96.614 36.662 99.696 48.454C106.128 72.976 114.972 90.128 129.578 106.342C122.476 110.898 120.198 112.774 114.838 118.67C105.324 107.146 98.356 95.086 92.058 79.274C86.296 65.204 81.606 47.248 79.328 30.498C78.524 25.406 78.122 22.86 77.452 20.85ZM213.194 41.754H239.726C249.106 41.754 251.92 41.62 257.146 40.816V57.7C252.322 57.164 248.838 57.03 239.994 57.03H212.524C211.318 75.656 209.04 84.5 202.876 94.818C195.506 107.012 186.126 115.32 168.706 124.834C164.15 117.196 162.14 114.784 156.512 110.362C172.592 103.394 182.776 95.086 188.806 83.964C192.826 76.728 194.3 70.698 195.372 57.03H162.14C153.296 57.03 149.812 57.164 144.988 57.7V40.816C150.214 41.62 153.162 41.754 162.408 41.754H196.176C196.31 36.126 196.31 33.714 196.31 31.302V23.396C196.31 17.634 196.176 14.15 195.64 10.532H214.132C213.596 14.82 213.596 14.954 213.462 23.396L213.328 31.436C213.194 40.28 213.194 40.28 213.194 41.754Z" fill="#FF7F00"/>
</svg>
