<svg width="268" height="134" viewBox="0 0 268 134" fill="none" xmlns="http://www.w3.org/2000/svg">
<rect width="268" height="134" fill="#202020"/>
<path d="M51.59 36.796H92.594C100.768 36.796 102.912 36.662 106.932 36.126V49.794C103.046 49.392 99.294 49.258 92.594 49.258H48.374C47.168 53.68 46.9 54.752 45.292 59.978H92.728C99.16 59.978 102.242 59.844 105.726 59.442C105.324 61.586 105.056 63.998 104.788 67.75C104.52 72.976 104.118 76.594 103.314 83.696H112.426C119.796 83.696 123.682 83.428 127.836 82.892V98.168C123.28 97.632 118.724 97.364 112.426 97.364H101.304C96.614 122.69 92.192 127.514 74.102 127.514C67.268 127.514 61.372 127.246 51.858 126.308C50.786 120.144 50.518 119.608 47.704 111.702C58.022 113.444 66.598 114.248 72.494 114.248C77.184 114.248 79.328 113.578 80.802 111.568C82.544 109.29 84.018 105.27 85.894 97.364H22.378C15.812 97.364 11.122 97.632 6.968 98.168V82.892C10.988 83.428 15.276 83.696 22.378 83.696H88.172C88.574 80.346 88.842 78.336 89.378 72.038H41.138L39.396 77.13L24.12 76.192C32.562 55.69 37.922 37.332 38.726 26.076L54.002 27.55C53.868 27.952 53.064 31.034 51.59 36.796ZM23.718 41.62H8.844C9.38 38.002 9.648 34.652 9.648 29.694V22.056C9.648 17.098 9.514 13.882 9.112 10.666C12.596 10.934 15.678 11.068 22.646 11.068H112.024C118.456 11.068 121.538 10.934 125.156 10.666C124.754 13.882 124.62 17.366 124.62 21.788V29.962C124.62 34.518 124.888 38.136 125.424 41.62H110.55V24.066H23.718V41.62ZM158.79 14.284H193.228C193.094 9.86199 192.96 8.11999 192.424 5.17199H209.04C208.504 8.11999 208.37 9.45999 208.236 14.284H243.076C250.58 14.284 255.002 14.016 259.826 13.48V27.148C254.868 26.612 250.446 26.344 243.076 26.344H208.236V31.57H229.944C237.448 31.57 241.334 31.436 245.89 31.034C245.488 35.322 245.354 38.672 245.354 46.31V73.378C245.354 80.882 245.488 84.232 245.89 88.386C241.2 88.118 236.778 87.984 229.944 87.984H172.19C165.758 87.984 160.8 88.118 156.378 88.386C156.78 83.964 156.914 79.81 156.914 73.378V46.31C156.914 39.476 156.78 35.59 156.378 31.034C161.068 31.436 164.82 31.57 172.324 31.57H193.228V26.344H158.79C151.42 26.344 146.864 26.612 142.308 27.148V13.48C146.864 14.016 151.152 14.284 158.79 14.284ZM171.118 42.692V47.918H231.15V42.692H171.118ZM171.118 57.03V62.39H231.15V57.03H171.118ZM171.118 71.502V76.862H231.15V71.502H171.118ZM179.024 105.538H155.842C150.08 105.538 145.39 105.806 140.834 106.342V91.87C145.122 92.406 149.41 92.674 155.842 92.674H245.756C252.858 92.674 257.146 92.406 261.702 91.87V106.342C257.012 105.806 252.858 105.538 247.096 105.538H223.512C234.366 111.836 244.818 115.052 262.64 117.598C258.084 122.824 255.94 125.638 253.394 130.328C235.572 126.442 225.12 122.288 211.184 113.846L219.224 105.538H182.508L190.95 113.846C177.684 122.154 165.356 126.978 149.142 130.328C146.73 125.37 144.854 122.288 140.7 117.598C156.78 115.32 167.232 111.97 179.024 105.538Z" fill="#FF7F00"/>
</svg>
