<svg width="268" height="134" viewBox="0 0 268 134" fill="none" xmlns="http://www.w3.org/2000/svg">
<rect width="268" height="134" fill="#202020"/>
<path d="M11.122 112.64V23.396C11.122 17.634 10.988 13.882 10.586 9.86199C13.266 10.13 19.698 10.398 25.728 10.398H109.21C115.374 10.398 120.868 10.13 123.682 9.86199C123.28 13.882 123.146 18.17 123.146 24.468V113.578C123.146 124.432 118.858 127.112 101.17 127.112C97.284 127.112 91.12 126.978 86.296 126.576C85.492 120.546 84.822 118 82.544 112.372C89.512 113.176 96.614 113.578 101.304 113.578C106.932 113.578 108.138 113.042 108.138 110.63V23.798H26.13V113.042C26.13 120.814 26.264 124.566 26.934 128.586H10.318C10.854 123.762 11.122 118.938 11.122 112.64ZM32.294 47.65V33.446C35.108 33.982 37.386 34.116 44.22 34.116H90.45C97.418 34.116 99.16 33.982 102.376 33.446V47.65C99.026 47.248 96.346 47.114 90.718 47.114H44.086C38.458 47.114 35.644 47.248 32.294 47.65ZM94.872 66.142V94.55C94.872 97.766 95.006 100.178 95.274 102.992C91.656 102.724 89.512 102.59 86.43 102.59H53.868V112.774H39.262C39.664 109.156 39.798 105.806 39.798 100.848V66.142C39.798 62.524 39.664 59.978 39.396 57.432C43.014 57.566 45.024 57.7 48.642 57.7H85.224C90.584 57.7 92.594 57.7 95.274 57.432C95.006 60.112 94.872 62.122 94.872 66.142ZM53.734 70.564V89.726H80.936V70.564H53.734ZM192.826 28.488H159.192C153.43 28.488 150.08 28.622 145.792 29.158V16.696C149.678 17.366 152.894 17.5 159.192 17.5H176.21C173.53 13.078 171.52 10.666 167.634 6.37799L181.436 3.29599C185.724 8.924 188.404 12.81 191.084 17.5H210.514C213.462 14.016 217.482 7.98599 220.028 3.29599L234.5 6.512C230.614 12.006 228.604 14.552 225.79 17.5H242.674C249.106 17.5 252.322 17.366 256.208 16.696V29.158C252.188 28.622 248.57 28.488 242.674 28.488H207.164V34.384H237.314C244.282 34.384 246.426 34.25 250.044 33.848V44.97C246.426 44.568 243.88 44.434 237.314 44.434H207.164V50.33H247.364C254.064 50.33 257.146 50.196 260.898 49.66V62.122C256.744 61.586 253.662 61.452 247.364 61.452H181.704C181.168 63.73 180.632 65.338 180.23 66.946H237.18C241.602 66.946 245.488 66.812 249.776 66.41C249.374 70.564 249.24 73.378 249.24 79.14V115.32C249.24 121.216 249.374 124.834 250.044 128.988H234.634V124.03H183.312V128.988H168.17C168.706 124.834 168.974 121.35 168.974 115.856V101.786C168.974 99.24 169.108 94.282 169.242 92.272C162.944 104.064 157.584 111.032 148.874 118.67C145.658 113.444 142.04 109.424 138.02 106.208C146.998 99.106 151.822 93.88 156.378 86.644C161.604 78.604 164.284 72.172 167.098 61.452H154.636C147.936 61.452 144.988 61.586 141.102 62.122V49.66C144.72 50.196 147.802 50.33 154.636 50.33H192.826V44.434H164.954C158.388 44.434 155.842 44.568 152.224 44.97V33.848C155.842 34.25 157.986 34.384 164.954 34.384H192.826V28.488ZM234.768 77.666H183.312V83.294H234.768V77.666ZM234.768 92.674H183.312V98.168H234.768V92.674ZM234.768 107.548H183.312V113.042H234.768V107.548Z" fill="#FF7F00"/>
</svg>
