<svg width="456" height="220" viewBox="0 0 456 220" fill="none" xmlns="http://www.w3.org/2000/svg">
<rect width="456" height="220" fill="#0080FF"/>
<path d="M85.153 105.967H50.127C41.054 105.967 33.88 106.389 27.128 107.233V86.555C33.88 87.399 40.632 87.821 50.127 87.821H72.493C68.695 81.069 68.273 80.436 65.108 77.06L81.144 71.996C70.383 72.207 70.383 72.207 61.521 72.207C59.622 67.565 57.512 63.556 53.925 58.07V68.198H31.137C31.77 63.345 32.192 58.914 32.192 52.373V40.557C32.192 33.805 31.981 29.796 31.348 24.943C37.678 25.576 44.219 25.787 54.558 25.787H109.629C109.629 19.246 109.418 16.081 108.574 11.861H134.105C133.261 16.292 133.05 19.879 133.05 25.787H191.497C201.625 25.787 208.377 25.576 214.918 24.943C214.285 29.163 214.074 33.172 214.074 40.557V52.373C214.074 58.914 214.285 63.345 214.918 67.987H192.13V63.134C181.369 64.822 176.305 65.455 165.333 66.51L182.002 72.418C174.828 83.39 174.406 84.023 171.663 87.821H195.506C205.423 87.821 212.175 87.399 218.716 86.555V107.233C211.753 106.389 204.79 105.967 195.506 105.967H158.792C178.626 122.425 196.561 131.498 223.147 138.461C218.505 144.791 215.973 150.277 213.23 159.561C204.157 155.974 200.781 154.497 192.552 150.066V185.303C192.552 194.587 192.763 200.917 193.607 207.88H170.608V200.073H74.814V207.669H51.393C52.237 201.128 52.659 193.532 52.659 185.092V149.855C46.329 153.231 43.164 154.708 34.724 158.506C31.559 150.066 28.605 144.58 23.541 138.672C51.182 129.81 66.163 121.792 85.153 105.967ZM111.528 105.967H110.473C104.354 113.141 96.125 120.737 86.208 128.333H159.003C149.93 121.37 142.123 114.618 133.894 105.967H132.839C132.839 107.444 133.05 110.609 133.05 112.297V115.251C133.05 118.416 133.261 121.159 133.894 123.902H110.473C111.106 120.948 111.317 118.416 111.317 115.04V112.086C111.317 110.82 111.317 107.866 111.528 105.967ZM133.05 69.464V87.821H149.93C154.994 81.491 158.792 75.161 162.379 66.721C158.37 67.143 154.994 67.565 153.095 67.776C141.912 68.831 141.912 68.831 133.05 69.464ZM111.317 87.821V70.73C102.244 71.152 93.382 71.574 85.153 71.785C89.373 78.115 91.061 81.069 94.648 87.821H111.317ZM53.925 45.199V55.538C61.943 55.749 63.209 55.749 67.429 55.749C115.115 55.749 152.884 52.584 179.048 46.254L192.13 60.602V45.199H53.925ZM74.814 144.791V155.974H111.106V144.791H74.814ZM132.628 144.791V155.974H170.608V144.791H132.628ZM74.814 171.588V182.982H111.106V171.588H74.814ZM132.628 171.588V182.982H170.608V171.588H132.628Z" fill="white"/>
<path d="M409.038 143.314L424.863 154.286C420.01 159.983 408.405 172.01 404.607 175.808C408.827 181.927 412.414 184.881 414.946 184.881C418.322 184.881 420.221 179.395 421.909 166.102C426.973 170.955 431.826 174.331 437.101 176.652C435.413 188.679 433.725 193.954 430.56 199.229C427.606 203.871 423.597 206.403 418.533 206.403C408.405 206.403 399.121 200.495 389.837 188.046C379.92 195.22 372.746 199.44 361.774 205.137C357.343 198.385 354.389 194.165 349.325 188.679C361.563 183.615 370.636 178.762 380.553 171.588C376.333 162.093 374.012 154.919 371.691 143.103H345.105V153.02C352.912 151.543 357.976 150.488 367.049 148.378L367.471 165.047C362.618 166.102 361.141 166.313 352.49 168.423C349.536 169.056 349.536 169.056 345.105 170.111V188.468C345.105 196.275 343.417 200.706 339.619 203.449C336.032 206.403 331.179 207.247 319.785 207.247C316.409 207.247 314.299 207.247 309.235 206.825C308.602 199.651 307.336 194.376 305.437 188.679C312.189 189.734 315.565 189.945 320.207 189.945C324.849 189.945 326.115 188.89 326.115 185.303V173.698C314.088 175.808 307.125 177.074 305.226 177.496L302.272 158.717C303.116 158.717 303.749 158.717 304.171 158.717C308.391 158.717 315.987 157.873 326.115 156.185V143.103H318.308C311.767 143.103 307.336 143.314 302.694 144.158V124.535C306.914 125.168 310.079 125.379 318.73 125.379H326.115V117.783C321.473 118.416 317.464 118.838 310.501 119.471C309.024 114.407 306.914 109.554 304.171 105.967C326.326 104.912 343.417 101.536 353.545 96.05L364.517 108.71L361.985 109.765C355.655 111.875 352.701 112.508 345.105 114.196V125.379H369.581C369.159 120.737 368.948 119.26 368.737 115.251C368.315 106.178 368.104 104.279 367.26 99.426H387.938C387.516 102.38 387.305 105.123 387.305 108.077C387.305 111.875 387.727 118.627 388.36 125.379H411.781C420.432 125.379 424.23 125.168 429.716 124.113V144.158C424.863 143.314 421.065 143.103 411.781 143.103H390.892C392.369 150.488 393.424 153.442 395.745 159.139C403.13 151.965 405.451 149.433 409.038 143.314ZM325.482 30.851H334.344C331.601 25.154 329.491 21.567 325.271 15.87L345.738 10.595C350.802 18.613 352.49 21.778 356.499 30.851H375.489C379.287 24.31 381.608 19.246 384.562 10.595L406.084 15.448C403.341 20.934 401.02 25.576 397.855 30.851H407.561C416.001 30.851 420.01 30.64 424.863 29.796V47.942C419.166 47.309 414.735 47.098 407.561 47.098H374.012V55.116H400.387C407.772 55.116 412.625 54.905 417.478 54.272V71.152C411.992 70.519 407.139 70.308 400.387 70.308H374.012V78.115H410.726C420.854 78.115 423.808 77.904 428.872 77.06V95.206C424.019 94.573 420.221 94.362 410.937 94.362H322.106C312.189 94.362 308.813 94.573 304.171 95.206V77.271C309.235 77.904 312.189 78.115 322.106 78.115H354.178V70.308H330.757C322.106 70.308 318.308 70.519 313.666 71.152V54.272C318.519 54.905 323.583 55.116 330.757 55.116H354.178V47.098H325.482C318.519 47.098 313.244 47.309 307.969 47.942V29.796C312.822 30.64 317.253 30.851 325.482 30.851ZM243.192 40.768V19.246C247.623 20.09 251.632 20.301 258.173 20.301H283.704C290.456 20.301 294.254 20.09 298.685 19.246V40.768C294.043 40.135 290.878 39.924 283.704 39.924H258.173C250.999 39.924 247.623 40.135 243.192 40.768ZM302.272 49.419V70.73C296.997 70.097 294.465 69.886 286.658 69.886H252.687C244.669 69.886 241.504 70.097 237.073 70.73V49.208C241.926 50.052 245.302 50.263 252.687 50.263H285.814C294.465 50.263 296.997 50.052 302.272 49.419ZM243.825 100.059V80.436C247.834 80.858 250.788 81.069 258.806 81.069H281.805C289.612 81.069 292.988 80.858 297.419 80.436V100.059C292.355 99.637 289.612 99.426 281.805 99.426H258.806C251.21 99.426 248.045 99.637 243.825 100.059ZM243.825 129.388V109.765C247.834 110.187 250.999 110.398 258.806 110.398H281.805C289.823 110.398 292.988 110.187 297.419 109.765V129.388C292.355 128.755 289.823 128.755 281.805 128.755H258.806C251.21 128.755 248.256 128.966 243.825 129.388ZM261.127 208.724H241.293C242.137 202.605 242.559 195.642 242.559 187.835V157.873C242.559 150.699 242.348 145.213 241.715 140.149C246.779 140.782 249.1 140.782 255.641 140.782H284.126C290.667 140.782 292.566 140.782 298.263 140.149C297.841 144.58 297.841 146.69 297.841 157.451V187.413C297.841 194.587 298.052 198.596 298.474 204.504H280.117V197.963H261.127V208.724ZM261.127 158.084V179.817H280.117V158.084H261.127ZM390.048 104.912L403.763 96.05C411.57 101.747 416.423 105.756 423.808 112.93L409.671 123.269C403.763 115.673 399.332 111.664 390.048 104.912Z" fill="white"/>
</svg>
